<?xml version="1.0" encoding="utf-8"?>
<!-- Generator: Adobe Illustrator 21.0.0, SVG Export Plug-In . SVG Version: 6.00 Build 0)  -->
<svg version="1.1" id="Layer_1" xmlns="http://www.w3.org/2000/svg" xmlns:xlink="http://www.w3.org/1999/xlink" x="0px" y="0px"
	 viewBox="0 0 52 52" style="enable-background:new 0 0 52 52;" xml:space="preserve">
<style type="text/css">
	.st0{fill:#000F44;}
	.st1{fill:url(#SVGID_1_);}
	.st2{fill:url(#SVGID_2_);}
	.st3{clip-path:url(#SVGID_4_);}
	.st4{fill:url(#SVGID_5_);}
	.st5{fill:url(#SVGID_6_);}
	.st6{fill:#19ABFF;}
	.st7{fill:#0C92D7;}
	.st8{fill:#01F2FF;}
</style>
<g>
	<circle class="st0" cx="26" cy="26" r="25"/>
	<linearGradient id="SVGID_1_" gradientUnits="userSpaceOnUse" x1="26" y1="51" x2="26" y2="1">
		<stop  offset="0" style="stop-color:#01F2FF"/>
		<stop  offset="0.2349" style="stop-color:#007ACB"/>
		<stop  offset="0.5051" style="stop-color:#0070BA"/>
		<stop  offset="0.7972" style="stop-color:#0070BA"/>
		<stop  offset="1" style="stop-color:#005F9E"/>
	</linearGradient>
	<path class="st1" d="M26,3.1c12.6,0,22.9,10.3,22.9,22.9S38.6,48.9,26,48.9S3.1,38.6,3.1,26S13.4,3.1,26,3.1 M26,1
		C12.2,1,1,12.2,1,26s11.2,25,25,25s25-11.2,25-25S39.8,1,26,1L26,1z"/>
</g>
<g>
	<linearGradient id="SVGID_2_" gradientUnits="userSpaceOnUse" x1="26" y1="47.4418" x2="26" y2="4.5582">
		<stop  offset="0" style="stop-color:#007ACB"/>
		<stop  offset="1" style="stop-color:#01F2FF"/>
	</linearGradient>
	<path class="st2" d="M26,5.1c11.5,0,20.9,9.4,20.9,20.9S37.5,46.9,26,46.9S5.1,37.5,5.1,26S14.5,5.1,26,5.1 M26,4.6
		C14.2,4.6,4.6,14.2,4.6,26S14.2,47.4,26,47.4S47.4,37.8,47.4,26S37.8,4.6,26,4.6L26,4.6z"/>
</g>
<g>
	<defs>
		<circle id="SVGID_3_" cx="26.1" cy="26" r="23.1"/>
	</defs>
	<clipPath id="SVGID_4_">
		<use xlink:href="#SVGID_3_"  style="overflow:visible;"/>
	</clipPath>
	<g class="st3">
		<radialGradient id="SVGID_5_" cx="-5.7406" cy="-19.1883" r="77.4878" gradientUnits="userSpaceOnUse">
			<stop  offset="0" style="stop-color:#01F2FF"/>
			<stop  offset="0.1398" style="stop-color:#19ABFF"/>
			<stop  offset="0.1461" style="stop-color:#18A7FA"/>
			<stop  offset="0.2139" style="stop-color:#1385C6"/>
			<stop  offset="0.2862" style="stop-color:#0F6597"/>
			<stop  offset="0.3615" style="stop-color:#0B4A6E"/>
			<stop  offset="0.4404" style="stop-color:#07334C"/>
			<stop  offset="0.524" style="stop-color:#052030"/>
			<stop  offset="0.6138" style="stop-color:#03121B"/>
			<stop  offset="0.7128" style="stop-color:#01080C"/>
			<stop  offset="0.8284" style="stop-color:#000203"/>
			<stop  offset="1" style="stop-color:#000000"/>
		</radialGradient>
		<path class="st4" d="M16.9,53L26,26.9l-9.7,25.7L16.9,53z M14.1,51.4L26,26.9L13.5,51L14.1,51.4z M11.4,49.8L26,26.9L10.8,49.4
			L11.4,49.8z M8.6,48.2L26,26.9L8,47.8L8.6,48.2z M19.8,54.7L26,26.9l-6.9,27.3L19.8,54.7z M22.9,56.5L26,26.9L22.2,56L22.9,56.5z
			 M-1.1,35.4L26,26.9l-27.1,7.7V35.4z M26,58.2l0.4-0.2L26,26.9L25.6,58L26,58.2z M-1.1,39L26,26.9L-1.1,38.2V39z M-1.1,28.9
			L26,26.9l-27.1,1.2V28.9z M-1.1,42.6l0.4,0.2L26,26.9L-1.1,42.1V42.6z M5.7,46.5L26,26.9L5.1,46.1L5.7,46.5z M2.7,44.8L26,26.9
			L1.9,44.3L2.7,44.8z M-1.1,32.1L26,26.9l-27.1,4.4V32.1z M53.1,34.6L26,26.9l27.1,8.5V34.6z M50.1,44.3L26,26.9l23.3,17.8
			L50.1,44.3z M29.8,56L26,26.9l3.1,29.5L29.8,56z M53.1,38.2L26,26.9L53.1,39V38.2z M53.1,28.1L26,26.9l27.1,1.9V28.1z M53.1,31.3
			L26,26.9l27.1,5.2V31.3z M53.1,42.6v-0.5L26,26.9l26.7,15.9L53.1,42.6z M32.9,54.3L26,26.9l6.2,27.7L32.9,54.3z M46.9,46.1
			L26,26.9l20.3,19.6L46.9,46.1z M38.5,51L26,26.9l11.9,24.5L38.5,51z M44,47.8L26,26.9l17.4,21.3L44,47.8z M41.2,49.4L26,26.9
			l14.6,22.9L41.2,49.4z M35.7,52.6L26,26.9L35.1,53L35.7,52.6z M40.6,4L26,26.9L41.2,4.4L40.6,4z M37.9,2.5L26,26.9L38.5,2.8
			L37.9,2.5z M43.4,5.6L26,26.9L44,6L43.4,5.6z M29.1-2.6L26,26.9l3.8-29.1L29.1-2.6z M32.2-0.8L26,26.9l6.9-27.3L32.2-0.8z
			 M35.1,0.9L26,26.9l9.7-25.7L35.1,0.9z M46.3,7.3L26,26.9L46.9,7.7L46.3,7.3z M53.1,21.8L26,26.9l27.1-4.4V21.8z M53.1,25L26,26.9
			l27.1-1.2V25z M49.3,9.1L26,26.9L50.1,9.5L49.3,9.1z M53.1,18.4L26,26.9l27.1-7.7V18.4z M53.1,11.3L52.7,11L26,26.9l27.1-15.2
			V11.3z M53.1,14.8L26,26.9l27.1-11.3V14.8z M8,6l18,20.9L8.6,5.6L8,6z M-1.1,15.7L26,26.9L-1.1,14.8V15.7z M5.1,7.7L26,26.9
			L5.7,7.3L5.1,7.7z M1.9,9.5L26,26.9L2.7,9.1L1.9,9.5z M-1.1,11.3v0.5L26,26.9L-0.7,11L-1.1,11.3z M26-4.4l-0.4,0.2L26,26.9
			l0.4-31.1L26-4.4z M-1.1,19.2L26,26.9l-27.1-8.5V19.2z M-1.1,22.5L26,26.9l-27.1-5.2V22.5z M19.1-0.4L26,26.9L19.8-0.8L19.1-0.4z
			 M16.3,1.2L26,26.9L16.9,0.9L16.3,1.2z M22.2-2.2L26,26.9L22.9-2.6L22.2-2.2z M-1.1,25.7L26,26.9L-1.1,25V25.7z M10.8,4.4L26,26.9
			L11.4,4L10.8,4.4z M13.5,2.8L26,26.9L14.1,2.5L13.5,2.8z"/>
		<radialGradient id="SVGID_6_" cx="35.8652" cy="-20.6893" r="77.5303" gradientUnits="userSpaceOnUse">
			<stop  offset="0" style="stop-color:#002DC2"/>
			<stop  offset="0.1398" style="stop-color:#372FB5"/>
			<stop  offset="0.1956" style="stop-color:#2E2796"/>
			<stop  offset="0.279" style="stop-color:#211D6E"/>
			<stop  offset="0.3681" style="stop-color:#17144C"/>
			<stop  offset="0.4624" style="stop-color:#0F0D30"/>
			<stop  offset="0.5638" style="stop-color:#08071B"/>
			<stop  offset="0.6756" style="stop-color:#04030C"/>
			<stop  offset="0.8062" style="stop-color:#010103"/>
			<stop  offset="1" style="stop-color:#000000"/>
		</radialGradient>
		<path class="st5" d="M17.9,29.8c8.8-8.8,19-16.1,30-21.6L26-4.4L-1.1,11.3v31.3l5.6,3.3C8.5,40.1,12.9,34.8,17.9,29.8z"/>
	</g>
</g>
<g>
	<rect x="17.7" y="13.9" class="st6" width="6.3" height="2.4"/>
	<path id="L_2_" class="st7" d="M17.7,13.9c-0.8,0-1.4,0.6-1.4,1.4v21.9c0,0.8,0.6,1.4,1.4,1.4h0.8c0.3,0,0.6-0.3,0.6-0.6V15.3
		C19.1,14.6,18.5,13.9,17.7,13.9L17.7,13.9z"/>
	<path id="COIN_1_" class="st8" d="M23.7,31.9c-0.6-0.4-2.1-1.6-2.7-3.6c-0.3-0.9-0.3-1.8-0.3-2c0-1.9,0.8-3.6,2-4.8
		c1.2-1.2,2.9-2,4.8-2h3.3c0.7,0,1.2,0.5,1.2,1.2v0c0,0.7-0.5,1.2-1.2,1.2h-3.2c-2.4,0-4.4,1.9-4.4,4.3c0,2.4,1.9,4.4,4.3,4.4h1.3h2
		c0.3,0,0.7,0.1,0.9,0.4c0.2,0.2,0.4,0.6,0.4,1c0,0.7-0.6,1.2-1.3,1.2h-1.9c-0.4,0-1,0-1.5-0.1C25.6,33,24.5,32.4,23.7,31.9z"/>
	<circle class="st6" cx="27.3" cy="26.4" r="2"/>
	<circle class="st8" cx="33.3" cy="37.1" r="1.2"/>
	<g>
		<path class="st7" d="M31.3,37.1c0-0.3,0.1-0.6,0.2-0.9c-0.3,0.1-0.6,0.1-0.9,0.1H18v2.4h12.5c0.5,0,1-0.1,1.4-0.1
			C31.5,38.2,31.3,37.7,31.3,37.1z"/>
		<path class="st6" d="M34.4,26.3c1.8-1.2,3-3.3,3-5.6c0-1.9-0.8-3.6-2-4.8c-1.2-1.2-2.9-2-4.8-2h-9.5c-0.7,0-1.2,0.5-1.2,1.2
			c0,0.7,0.5,1.2,1.2,1.2h9.4c2.4,0,4.4,1.9,4.4,4.3c0,2.4-1.9,4.4-4.3,4.4h-1.3h-2c-0.3,0-0.7,0.1-0.9,0.4c-0.2,0.2-0.4,0.6-0.4,1
			c0,0.7,0.6,1.2,1.3,1.2h1.9h1.2c2.4,0,4.4,1.9,4.4,4.3c0,1.3-0.5,2.4-1.4,3.2c0.9,0.1,1.6,0.8,1.7,1.7c1.2-1.2,2-2.9,2.1-4.8
			c0-1.2-0.3-2.3-0.8-3.3C36.1,27.7,35.3,26.9,34.4,26.3z"/>
	</g>
	<rect x="19.1" y="13.9" class="st6" width="4.1" height="2.4"/>
</g>
</svg>
